<?xml version="1.0" encoding="UTF-8"?>
<!DOCTYPE svg PUBLIC "-//W3C//DTD SVG 1.1//EN" "http://www.w3.org/Graphics/SVG/1.1/DTD/svg11.dtd">
<!-- Creator: CorelDRAW 2017 -->
<svg xmlns="http://www.w3.org/2000/svg" xml:space="preserve" width="135mm" height="70mm" version="1.1" style="shape-rendering:geometricPrecision; text-rendering:geometricPrecision; image-rendering:optimizeQuality; fill-rule:evenodd; clip-rule:evenodd"
viewBox="0 0 13500 7000"
 xmlns:xlink="http://www.w3.org/1999/xlink"
 xmlns:dc="http://purl.org/dc/elements/1.1/"
 xmlns:cc="http://creativecommons.org/ns#"
 xmlns:rdf="http://www.w3.org/1999/02/22-rdf-syntax-ns#"
 xmlns:svg="http://www.w3.org/2000/svg"
 xmlns:sodipodi="http://sodipodi.sourceforge.net/DTD/sodipodi-0.dtd"
 xmlns:inkscape="http://www.inkscape.org/namespaces/inkscape"
 inkscape:version="0.48.1 "
 sodipodi:docname="新規ドキュメント 13">
 <defs>
  <style type="text/css">
   <![CDATA[
    .fil0 {fill:#47AA42}
    .fil2 {fill:white}
    .fil1 {fill:white}
   ]]>
  </style>
 </defs>
 <g id="Capa_x0020_1">
  <metadata id="CorelCorpID_0Corel-Layer"/>
  <sodipodi:namedview id="base" pagecolor="#ffffff" bordercolor="#666666" borderopacity="1.0" inkscape:pageopacity="0.0" inkscape:pageshadow="2" inkscape:zoom="1" inkscape:cx="86.647292" inkscape:cy="79.732212" inkscape:document-units="px" inkscape:current-layer="layer1" showgrid="false" inkscape:window-width="1024" inkscape:window-height="715" inkscape:window-x="-8" inkscape:window-y="-8" inkscape:window-maximized="1"/>
  <g id="_1862726708528">
   <path class="fil0" d="M1964 623c-79,-39 -195,0 -195,0 -466,152 -460,148 -574,187 -4,2 -9,4 -11,4 -6,0 -11,-6 -11,-11 0,-4 2,-6 4,-7 2,-2 4,-2 4,-2 0,0 84,-52 163,-101 19,-11 32,-19 49,-28 13,-7 54,-30 54,-54 0,-15 -11,-28 -28,-30 0,0 -6,0 -6,0l-22 0 -297 0 0 0 -97 0c-69,0 -120,21 -155,41 -75,51 -125,135 -125,232 0,71 28,137 71,185l0 0 836 791 0 0c49,47 116,77 189,77 152,0 273,-123 273,-275l0 -818c2,-79 -49,-148 -120,-191z"/>
   <path class="fil1" d="M2375 1201c9,-2 17,-2 24,-2 9,0 17,0 26,2l54 135 56 -135c7,-2 15,-2 22,-2 9,0 17,0 24,2l11 236c-7,2 -17,2 -22,2 -7,0 -15,0 -22,-2l-6 -161 -47 110c-4,0 -6,0 -9,2 -4,0 -7,0 -9,0 -4,0 -6,0 -9,0 -2,0 -6,0 -9,-2l-47 -112 -4 163c-7,2 -13,2 -21,2 -7,0 -15,0 -21,-2l7 -236z"/>
   <path class="fil1" d="M2675 1366c2,13 6,22 13,28 7,6 19,9 34,9 7,0 15,0 22,-2 7,-2 15,-4 22,-6 2,4 6,9 6,15 2,6 2,13 4,21 -17,6 -36,9 -58,9 -15,0 -30,-2 -41,-7 -11,-4 -21,-11 -28,-19 -7,-7 -13,-17 -17,-28 -4,-11 -6,-22 -6,-36 0,-13 2,-24 6,-36 4,-11 9,-21 15,-28 7,-7 15,-15 26,-19 11,-6 22,-7 36,-7 11,0 22,2 32,6 9,4 17,9 24,17 6,7 11,15 15,26 4,9 4,21 4,32 0,4 0,7 0,13 0,4 0,7 0,9l-109 0 0 2zm65 -32c0,-11 -4,-19 -9,-26 -6,-6 -13,-9 -22,-9 -11,0 -19,4 -24,9 -6,6 -9,15 -9,26l65 0z"/>
   <path class="fil1" d="M2826 1302l-22 0 -2 -6 64 -79 7 0 0 51 39 0c0,4 0,6 2,9 0,2 0,6 0,7 0,4 0,6 0,9 0,4 0,6 -2,9l-39 0 0 67c0,7 0,13 2,17 2,4 2,7 6,9 2,2 4,4 7,6 4,0 7,2 11,2 4,0 7,0 9,0 4,0 6,-2 9,-2 2,4 2,9 4,13 0,4 0,9 0,11 0,2 0,4 0,6 0,2 0,4 0,6 -9,2 -21,4 -32,4 -21,0 -36,-4 -45,-13 -11,-9 -15,-24 -15,-45l0 -82 -4 0z"/>
   <path class="fil1" d="M2948 1266c4,0 6,-2 9,-2 4,0 6,0 9,0 4,0 6,0 9,0 4,0 6,2 9,2 0,2 2,2 2,6 0,2 0,4 2,7 0,2 2,4 2,7 0,2 0,4 0,6 4,-7 11,-13 17,-19 7,-6 15,-7 26,-7 2,0 6,0 7,0 2,0 6,0 6,2 0,2 2,6 2,7 0,4 0,6 0,9 0,4 0,7 0,13 0,4 -2,9 -2,13 -2,0 -6,0 -7,0l-6 0c-4,0 -7,0 -13,2 -4,0 -9,2 -13,6 -4,4 -7,7 -9,15 -2,7 -4,15 -4,28l0 80c-4,0 -7,2 -11,2 -4,0 -7,0 -11,0 -4,0 -7,0 -11,0 -4,0 -7,0 -11,-2l0 -176 -2 0z"/>
   <g>
    <path class="fil1" d="M3146 1440c-13,0 -26,-2 -36,-7 -9,-4 -19,-11 -24,-19 -7,-7 -11,-17 -15,-28 -4,-11 -6,-22 -6,-36 0,-13 2,-24 6,-36 4,-11 9,-21 15,-28 7,-7 15,-15 24,-19 11,-4 22,-7 36,-7 13,0 26,2 36,7 9,4 19,11 26,19 7,7 11,17 15,28 4,11 6,22 6,36 0,13 -2,24 -6,36 -4,11 -9,21 -15,28 -7,7 -15,15 -26,19 -9,6 -22,7 -36,7l0 0zm0 -36c13,0 21,-4 26,-13 6,-9 7,-22 7,-39 0,-17 -4,-30 -7,-39 -6,-9 -13,-13 -26,-13 -11,0 -21,4 -26,13 -6,9 -7,22 -7,39 0,17 2,30 7,39 6,9 15,13 26,13z"/>
   </g>
   <path class="fil1" d="M2474 1504c4,0 7,-2 11,-2 4,0 7,0 11,0 4,0 7,0 11,0 4,0 7,0 11,2l0 241c-9,4 -21,6 -32,7 -11,2 -24,2 -39,2 -11,0 -22,-2 -34,-6 -11,-4 -21,-9 -30,-15 -9,-7 -15,-17 -21,-28 -2,-9 -4,-22 -4,-39 0,-13 2,-24 6,-36 4,-11 9,-21 17,-30 7,-9 17,-15 28,-21 11,-6 24,-7 37,-7 4,0 7,0 13,0 4,0 7,2 13,2l0 -71zm0 109c-6,-2 -9,-2 -11,-2 -2,0 -6,0 -11,0 -7,0 -13,2 -19,4 -6,4 -9,7 -13,13 -4,6 -6,11 -7,19 -2,7 -2,13 -2,21 0,9 0,17 4,24 2,6 6,11 9,15 4,4 7,7 15,7 6,2 11,2 17,2 4,0 7,0 11,0 4,0 7,-2 11,-2l0 -101 -4 0z"/>
   <path class="fil1" d="M2605 1680c0,13 6,24 13,30 9,6 21,9 34,9 7,0 15,0 24,-2 7,-2 15,-4 22,-6 2,4 4,9 6,17 2,6 2,13 4,21 -17,7 -37,9 -60,9 -17,0 -30,-2 -41,-7 -11,-4 -21,-11 -28,-19 -7,-7 -13,-17 -17,-28 -4,-11 -6,-22 -6,-36 0,-13 2,-24 6,-36 4,-11 9,-21 17,-30 7,-7 17,-15 26,-21 9,-6 22,-7 36,-7 13,0 22,2 32,6 9,4 17,9 24,17 7,7 11,17 15,26 4,9 6,21 6,34 0,4 0,9 0,13 0,4 0,7 -2,9l-110 0zm69 -34c0,-11 -4,-19 -9,-26 -6,-7 -13,-9 -22,-9 -11,0 -21,4 -26,9 -6,6 -9,15 -11,26l69 0z"/>
   <path class="fil1" d="M2832 1510c7,-2 17,-2 24,-2 7,0 17,0 24,2l0 200 84 0c0,4 2,7 2,11 0,4 0,7 0,9 0,4 0,7 0,11 0,4 0,7 -2,11l-133 0 0 -243z"/>
   <path class="fil1" d="M3006 1614l-22 0c0,-4 -2,-6 -2,-9 0,-4 0,-6 0,-9 0,-6 0,-11 2,-19l69 0 0 176c-7,2 -15,2 -24,2 -7,0 -15,0 -22,-2l0 -138zm-7 -67c-2,-7 -2,-15 -2,-22 0,-7 0,-15 2,-22 4,0 7,-2 13,-2 4,0 7,0 11,0 4,0 7,0 13,0 6,0 9,0 13,2 0,4 2,7 2,11 0,4 0,7 0,11 0,4 0,7 0,11 0,4 0,7 -2,11 -4,0 -7,2 -13,2 -4,0 -7,0 -13,0 -4,0 -7,0 -11,0 -6,0 -9,0 -13,-2z"/>
   <path class="fil1" d="M3099 1577c4,0 6,-2 9,-2 4,0 7,0 11,0 4,0 7,0 9,0 4,0 6,0 9,2 0,2 2,2 2,6 0,2 2,4 2,7 0,2 0,4 2,7 0,2 0,4 0,6 2,-4 4,-7 7,-9 4,-4 6,-6 11,-9 4,-2 9,-6 13,-7 6,-2 11,-2 17,-2 28,0 45,11 52,32 4,-7 11,-15 19,-22 7,-6 19,-9 32,-9 21,0 34,6 43,17 9,11 13,28 13,51l0 110c-7,2 -17,2 -24,2 -7,0 -17,0 -24,-2l0 -99c0,-11 -2,-22 -4,-28 -4,-7 -9,-9 -19,-9 -4,0 -7,0 -11,2 -4,2 -7,4 -9,6 -4,4 -6,7 -7,13 -2,6 -4,13 -4,21l0 94c-7,2 -17,2 -24,2 -7,0 -15,0 -24,-2l0 -99c0,-11 -2,-22 -4,-28 -4,-7 -9,-9 -19,-9 -4,0 -7,0 -11,2 -4,2 -7,4 -11,7 -4,4 -6,7 -7,13 -2,6 -2,13 -2,22l0 92c-7,2 -17,2 -24,2 -7,0 -15,0 -24,-2l0 -174 2 0z"/>
   <path class="fil1" d="M3483 1637c0,-6 0,-9 -2,-13 -2,-4 -4,-6 -7,-7 -4,-2 -7,-4 -11,-4 -4,0 -9,-2 -15,-2 -11,0 -24,2 -39,7 -4,-6 -6,-11 -7,-17 -2,-6 -2,-11 -2,-19 9,-4 21,-6 30,-7 9,-2 19,-2 28,-2 24,0 41,6 54,17 13,11 21,30 21,54l0 101c-7,2 -17,6 -28,7 -11,2 -24,4 -37,4 -11,0 -22,-2 -32,-4 -9,-2 -17,-6 -24,-9 -7,-6 -13,-11 -15,-19 -4,-7 -6,-17 -6,-28 0,-11 2,-21 7,-28 6,-7 11,-13 19,-17 7,-4 15,-7 24,-9 9,-2 19,-4 26,-4 6,0 13,0 22,2l0 -4 -6 0zm0 36c-2,0 -6,0 -9,-2 -4,0 -6,0 -7,0 -11,0 -21,2 -26,6 -6,4 -9,11 -9,19 0,6 2,11 4,13 2,4 6,6 9,7 4,2 7,2 11,2 4,0 7,0 9,0 4,0 7,0 9,0 4,0 6,-2 9,-2l0 -43z"/>
   <path id="path3911-9" class="fil2" d="M990 1032l0 -267 58 0 0 254c0,13 3,23 13,30 10,4 23,4 38,4l0 46c-78,0 -109,-19 -109,-66z" inkscape:connector-curvature="0" sodipodi:nodetypes="sccscccs"/>
   <polygon id="path3913-8" class="fil2" points="1150,1094 1150,901 1117,901 1117,868 1208,868 1208,1094 " inkscape:connector-curvature="0" sodipodi:nodetypes="ccccccc"/>
   <path id="path3915-0" class="fil2" d="M1415 1097l0 -146c0,-17 -13,-33 -42,-34 -23,0 -45,19 -45,38l0 142 -59 0 0 -229 59 0 0 29c15,-23 28,-34 61,-34 56,0 84,30 84,91l0 142 -58 0z" inkscape:connector-curvature="0" sodipodi:nodetypes="ccccccccccscc"/>
   <path id="path3917-0" class="fil2" d="M1721 998l-152 0c0,28 7,33 17,44 9,9 28,15 48,15 19,0 36,-3 55,-13l21 45c-30,9 -62,14 -90,14 -29,0 -53,-10 -74,-30 -22,-22 -34,-52 -34,-90 0,-39 12,-71 35,-94 21,-21 45,-32 73,-32 33,0 58,10 77,29 18,18 27,43 27,73 0,9 -1,31 -3,39l0 0zm-99 -94c-35,0 -52,28 -52,52l101 0c0,-26 -22,-51 -49,-52z" inkscape:connector-curvature="0" sodipodi:nodetypes="cccsccccsccccccccc"/>
   <path id="path3919-1" class="fil2" d="M1825 1103c-19,0 -36,-7 -50,-20 -14,-13 -21,-30 -21,-50 0,-24 11,-44 33,-60 36,-21 67,-31 100,-20 0,-24 -13,-47 -39,-47 -27,0 -44,5 -63,12l-18 -35c8,-6 20,-12 34,-17 15,-5 29,-7 42,-7 36,0 61,8 78,23 16,15 24,40 24,74 0,0 0,104 0,136 0,0 -30,11 -71,11l-48 0 0 0zm65 -115c0,0 -14,-1 -34,-1 -31,0 -41,21 -41,36 0,30 21,34 39,34 19,0 30,-3 35,-7l0 -62z" inkscape:connector-curvature="0" sodipodi:nodetypes="csscccccccccccccccsccc"/>
   <path id="path3944-5" class="fil2" d="M1944 1240l0 465c0,25 -25,49 -54,49l-112 1 0 -380 -105 0 0 -75c78,-15 98,-55 128,-104l102 0c20,0 42,23 42,43l0 0z" sodipodi:nodetypes="cccccccccc" inkscape:connector-curvature="0"/>
  </g>
 </g>
</svg>
