<?xml version="1.0" encoding="UTF-8"?>
<!DOCTYPE svg PUBLIC "-//W3C//DTD SVG 1.1//EN" "http://www.w3.org/Graphics/SVG/1.1/DTD/svg11.dtd">
<!-- Creator: CorelDRAW 2017 -->
<svg xmlns="http://www.w3.org/2000/svg" xml:space="preserve" width="28.1782mm" height="13.2658mm" version="1.1" style="shape-rendering:geometricPrecision; text-rendering:geometricPrecision; image-rendering:optimizeQuality; fill-rule:evenodd; clip-rule:evenodd"
viewBox="0 0 658 310"
 xmlns:xlink="http://www.w3.org/1999/xlink">
 <defs>
  <style type="text/css">
   <![CDATA[
    .fil0 {fill:white}
   ]]>
  </style>
 </defs>
 <g id="Capa_x0020_1">
  <metadata id="CorelCorpID_0Corel-Layer"/>
  <path class="fil0" d="M292 10c-18,-9 -45,0 -45,0 -109,35 -107,35 -134,44 -1,0 -2,1 -3,1 -1,0 -3,-1 -3,-3 0,-1 0,-1 1,-2 0,0 1,0 1,0 0,0 20,-12 38,-24 4,-3 7,-4 11,-7 3,-2 13,-7 13,-13 0,-3 -3,-7 -7,-7 0,0 -1,0 -1,0l-5 0 -69 0 0 0 -23 0c-16,0 -28,5 -36,10 -17,12 -29,31 -29,54 0,17 7,32 17,43l0 0 195 185 0 0c11,11 27,18 44,18 35,0 64,-29 64,-64l0 -191c0,-18 -11,-35 -28,-45zm-227 96l0 -62 14 0 0 59c0,3 1,5 3,7 2,1 5,1 9,1l0 11c-18,0 -25,-4 -25,-15zm37 15l0 -45 -8 0 0 -8 21 0 0 53 -14 0zm62 1l0 -34c0,-4 -3,-8 -10,-8 -5,0 -11,4 -11,9l0 33 -14 0 0 -53 14 0 0 7c3,-5 6,-8 14,-8 13,0 20,7 20,21l0 33 -14 0zm72 -23l-35 0c0,6 2,8 4,10 2,2 7,4 11,4 4,0 8,-1 13,-3l5 11c-7,2 -14,3 -21,3 -7,0 -12,-2 -17,-7 -5,-5 -8,-12 -8,-21 0,-9 3,-16 8,-22 5,-5 10,-7 17,-7 8,0 14,2 18,7 4,4 6,10 6,17 0,2 0,7 -1,9l0 0zm-23 -22c-8,0 -12,6 -12,12l24 0c0,-6 -5,-12 -11,-12zm47 46c-4,0 -8,-2 -12,-5 -3,-3 -5,-7 -5,-12 0,-6 3,-10 8,-14 8,-5 16,-7 23,-5 0,-6 -3,-11 -9,-11 -6,0 -10,1 -15,3l-4 -8c2,-2 5,-3 8,-4 3,-1 7,-2 10,-2 8,0 14,2 18,5 4,4 6,9 6,17 0,0 0,24 0,32 0,0 -7,3 -16,3l-11 0 0 0zm15 -27c0,0 -3,0 -8,0 -7,0 -9,5 -9,8 0,7 5,8 9,8 5,0 7,-1 8,-2l0 -14zm12 59l0 109c0,6 -6,11 -13,12l-26 0 0 -89 -24 0 0 -17c18,-3 23,-13 30,-24l24 0c5,0 10,5 10,10l0 0z"/>
  <path class="fil0" d="M388 145c2,0 4,0 6,0 2,0 4,0 6,0l13 31 13 -31c2,0 3,0 5,0 2,0 4,0 6,0l3 55c-2,0 -4,0 -5,0 -2,0 -3,0 -5,0l-1 -38 -11 26c-1,0 -1,0 -2,0 -1,0 -2,0 -2,0 -1,0 -1,0 -2,0 0,0 -1,0 -2,0l-11 -26 -1 38c-2,0 -3,0 -5,0 -2,0 -3,0 -5,0l2 -55z"/>
  <path class="fil0" d="M458 183c0,3 1,5 3,7 2,1 4,2 8,2 2,0 3,0 5,0 2,0 3,-1 5,-1 0,1 1,2 1,3 0,1 0,3 1,5 -4,1 -8,2 -14,2 -3,0 -7,0 -10,-2 -3,-1 -5,-3 -7,-4 -2,-2 -3,-4 -4,-7 -1,-3 -1,-5 -1,-8 0,-3 0,-6 1,-8 1,-3 2,-5 3,-7 2,-2 3,-3 6,-4 3,-1 5,-2 8,-2 3,0 5,0 7,1 2,1 4,2 6,4 1,2 3,3 3,6 1,2 1,5 1,7 0,1 0,2 0,3 0,1 0,2 0,2l-25 0 0 0zm15 -7c0,-3 -1,-4 -2,-6 -1,-1 -3,-2 -5,-2 -3,0 -4,1 -6,2 -1,1 -2,3 -2,6l15 0z"/>
  <path class="fil0" d="M493 169l-5 0 0 -1 15 -18 2 0 0 12 9 0c0,1 0,1 0,2 0,0 0,1 0,2 0,1 0,1 0,2 0,1 0,1 0,2l-9 0 0 16c0,2 0,3 0,4 0,1 0,2 1,2 0,0 1,1 2,1 1,0 2,0 3,0 1,0 2,0 2,0 1,0 1,0 2,0 0,1 0,2 1,3 0,1 0,2 0,3 0,0 0,1 0,1 0,0 0,1 0,1 -2,0 -5,1 -7,1 -5,0 -8,-1 -10,-3 -3,-2 -3,-6 -3,-10l0 -19 -1 0z"/>
  <path class="fil0" d="M521 160c1,0 1,0 2,0 1,0 1,0 2,0 1,0 1,0 2,0 1,0 1,0 2,0 0,0 0,0 0,1 0,0 0,1 0,2 0,0 0,1 0,2 0,0 0,1 0,1 1,-2 3,-3 4,-4 2,-1 3,-2 6,-2 0,0 1,0 2,0 0,0 1,0 1,0 0,0 0,1 0,2 0,1 0,1 0,2 0,1 0,2 0,3 0,1 0,2 0,3 0,0 -1,0 -2,0l-1 0c-1,0 -2,0 -3,0 -1,0 -2,0 -3,1 -1,1 -2,2 -2,3 0,2 -1,3 -1,7l0 19c-1,0 -2,0 -3,0 -1,0 -2,0 -3,0 -1,0 -2,0 -3,0 -1,0 -2,0 -3,0l0 -41 0 0z"/>
  <g>
   <path class="fil0" d="M568 201c-3,0 -6,0 -8,-2 -2,-1 -4,-3 -6,-4 -2,-2 -3,-4 -3,-7 -1,-3 -1,-5 -1,-8 0,-3 0,-6 1,-8 1,-3 2,-5 3,-7 2,-2 3,-3 6,-4 3,-1 5,-2 8,-2 3,0 6,0 8,2 2,1 4,3 6,4 2,2 3,4 3,7 1,3 1,5 1,8 0,3 0,6 -1,8 -1,3 -2,5 -3,7 -2,2 -3,3 -6,4 -2,1 -5,2 -8,2l0 0zm0 -8c3,0 5,-1 6,-3 1,-2 2,-5 2,-9 0,-4 -1,-7 -2,-9 -1,-2 -3,-3 -6,-3 -3,0 -5,1 -6,3 -1,2 -2,5 -2,9 0,4 0,7 2,9 1,2 3,3 6,3z"/>
  </g>
  <path class="fil0" d="M411 216c1,0 2,0 3,0 1,0 2,0 3,0 1,0 2,0 3,0 1,0 2,0 3,0l0 56c-2,1 -5,1 -7,2 -3,0 -6,0 -9,0 -3,0 -5,0 -8,-1 -3,-1 -5,-2 -7,-3 -2,-2 -3,-4 -5,-7 0,-2 -1,-5 -1,-9 0,-3 0,-6 1,-8 1,-3 2,-5 4,-7 2,-2 4,-3 7,-5 3,-1 6,-2 9,-2 1,0 2,0 3,0 1,0 2,0 3,0l0 -17zm0 25c-1,0 -2,0 -3,0 0,0 -1,0 -3,0 -2,0 -3,0 -4,1 -1,1 -2,2 -3,3 -1,1 -1,3 -2,4 0,2 0,3 0,5 0,2 0,4 1,6 0,1 1,3 2,3 1,1 2,2 3,2 1,0 3,0 4,0 1,0 2,0 3,0 1,0 2,0 3,0l0 -24 -1 0z"/>
  <path class="fil0" d="M442 257c0,3 1,6 3,7 2,1 5,2 8,2 2,0 3,0 6,0 2,0 3,-1 5,-1 0,1 1,2 1,4 0,1 0,3 1,5 -4,2 -9,2 -14,2 -4,0 -7,0 -10,-2 -3,-1 -5,-3 -7,-4 -2,-2 -3,-4 -4,-7 -1,-3 -1,-5 -1,-8 0,-3 0,-6 1,-8 1,-3 2,-5 4,-7 2,-2 4,-3 6,-5 2,-1 5,-2 8,-2 3,0 5,0 7,1 2,1 4,2 6,4 2,2 3,4 3,6 1,2 1,5 1,8 0,1 0,2 0,3 0,1 0,2 0,2l-26 0zm16 -8c0,-3 -1,-4 -2,-6 -1,-2 -3,-2 -5,-2 -3,0 -5,1 -6,2 -1,1 -2,3 -3,6l16 0z"/>
  <path class="fil0" d="M494 217c2,0 4,0 6,0 2,0 4,0 6,0l0 47 20 0c0,1 0,2 0,3 0,1 0,2 0,2 0,1 0,2 0,3 0,1 0,2 0,3l-31 0 0 -57z"/>
  <path class="fil0" d="M535 242l-5 0c0,-1 0,-1 0,-2 0,-1 0,-1 0,-2 0,-1 0,-3 0,-4l16 0 0 41c-2,0 -3,0 -6,0 -2,0 -3,0 -5,0l0 -32zm-2 -16c0,-2 0,-3 0,-5 0,-2 0,-3 0,-5 1,0 2,0 3,0 1,0 2,0 3,0 1,0 2,0 3,0 1,0 2,0 3,0 0,1 0,2 0,3 0,1 0,2 0,3 0,1 0,2 0,3 0,1 0,2 0,3 -1,0 -2,0 -3,0 -1,0 -2,0 -3,0 -1,0 -2,0 -3,0 -1,0 -2,0 -3,0z"/>
  <path class="fil0" d="M557 233c1,0 1,0 2,0 1,0 2,0 3,0 1,0 2,0 2,0 1,0 1,0 2,0 0,0 0,0 0,1 0,0 0,1 0,2 0,0 0,1 0,2 0,0 0,1 0,1 0,-1 1,-2 2,-2 1,-1 1,-1 3,-2 1,0 2,-1 3,-2 1,0 3,0 4,0 7,0 10,3 12,7 1,-2 3,-3 4,-5 2,-1 4,-2 7,-2 5,0 8,1 10,4 2,3 3,7 3,12l0 26c-2,0 -4,0 -6,0 -2,0 -4,0 -6,0l0 -23c0,-3 0,-5 -1,-7 -1,-2 -2,-2 -4,-2 -1,0 -2,0 -3,0 -1,0 -2,1 -2,1 -1,1 -1,2 -2,3 0,1 -1,3 -1,5l0 22c-2,0 -4,0 -6,0 -2,0 -3,0 -6,0l0 -23c0,-3 0,-5 -1,-7 -1,-2 -2,-2 -4,-2 -1,0 -2,0 -3,0 -1,0 -2,1 -3,2 -1,1 -1,2 -2,3 0,1 0,3 0,5l0 21c-2,0 -4,0 -6,0 -2,0 -3,0 -6,0l0 -41 0 0z"/>
  <path class="fil0" d="M646 247c0,-1 0,-2 0,-3 0,-1 -1,-1 -2,-2 -1,0 -2,-1 -3,-1 -1,0 -2,0 -3,0 -3,0 -6,0 -9,2 -1,-1 -1,-3 -2,-4 0,-1 0,-3 0,-4 2,-1 5,-1 7,-2 2,0 4,0 7,0 6,0 10,1 13,4 3,3 5,7 5,13l0 24c-2,0 -4,1 -7,2 -3,0 -6,1 -9,1 -3,0 -5,0 -7,-1 -2,0 -4,-1 -6,-2 -2,-1 -3,-3 -3,-4 -1,-2 -1,-4 -1,-7 0,-3 0,-5 2,-7 1,-2 3,-3 4,-4 2,-1 3,-2 6,-2 2,0 4,-1 6,-1 1,0 3,0 5,0l0 -1 -1 0zm0 8c0,0 -1,0 -2,0 -1,0 -1,0 -2,0 -3,0 -5,0 -6,1 -1,1 -2,3 -2,4 0,1 0,3 1,3 0,1 1,1 2,2 1,0 2,0 3,0 1,0 2,0 2,0 1,0 2,0 2,0 1,0 1,0 2,0l0 -10z"/>
 </g>
</svg>
