<?xml version="1.0" encoding="UTF-8"?>
<!DOCTYPE svg PUBLIC "-//W3C//DTD SVG 1.1//EN" "http://www.w3.org/Graphics/SVG/1.1/DTD/svg11.dtd">
<!-- Creator: CorelDRAW 2017 -->
<svg xmlns="http://www.w3.org/2000/svg" xml:space="preserve" width="135mm" height="70mm" version="1.1" style="shape-rendering:geometricPrecision; text-rendering:geometricPrecision; image-rendering:optimizeQuality; fill-rule:evenodd; clip-rule:evenodd"
viewBox="0 0 13500 7000"
 xmlns:xlink="http://www.w3.org/1999/xlink"
 xmlns:dc="http://purl.org/dc/elements/1.1/"
 xmlns:cc="http://creativecommons.org/ns#"
 xmlns:rdf="http://www.w3.org/1999/02/22-rdf-syntax-ns#"
 xmlns:svg="http://www.w3.org/2000/svg"
 xmlns:sodipodi="http://sodipodi.sourceforge.net/DTD/sodipodi-0.dtd"
 xmlns:inkscape="http://www.inkscape.org/namespaces/inkscape"
 inkscape:version="0.48.1 "
 sodipodi:docname="新規ドキュメント 13">
 <defs>
  <style type="text/css">
   <![CDATA[
    .fil1 {fill:black}
    .fil0 {fill:#47AA42}
    .fil2 {fill:white}
   ]]>
  </style>
 </defs>
 <g id="Capa_x0020_1">
  <metadata id="CorelCorpID_0Corel-Layer"/>
  <sodipodi:namedview id="base" pagecolor="#ffffff" bordercolor="#666666" borderopacity="1.0" inkscape:pageopacity="0.0" inkscape:pageshadow="2" inkscape:zoom="1" inkscape:cx="86.647292" inkscape:cy="79.732212" inkscape:document-units="px" inkscape:current-layer="layer1" showgrid="false" inkscape:window-width="1024" inkscape:window-height="715" inkscape:window-x="-8" inkscape:window-y="-8" inkscape:window-maximized="1"/>
  <g id="_1862726709520">
   <path class="fil0" d="M5914 487c-366,-183 -907,0 -907,0 -2171,706 -2145,689 -2676,872 -17,9 -44,17 -52,17 -26,0 -52,-26 -52,-52 0,-17 9,-26 17,-35 9,-9 17,-9 17,-9 0,0 392,-244 758,-471 87,-52 148,-87 227,-131 61,-35 253,-139 253,-253 0,-70 -52,-131 -131,-139 0,0 -26,0 -26,0l-105 0 -1386 0 0 0 -453 0c-323,0 -558,96 -724,192 -349,235 -584,628 -584,1081 0,331 131,636 331,863l0 0 3897 3688 0 0c227,218 540,357 880,357 706,0 1273,-575 1273,-1281l0 -3810c9,-366 -227,-689 -558,-889z"/>
   <path class="fil1" d="M7832 3180c44,-9 78,-9 113,-9 44,0 78,0 122,9l253 628 262 -628c35,-9 70,-9 105,-9 44,0 78,0 113,9l52 1098c-35,9 -78,9 -105,9 -35,0 -70,0 -105,-9l-26 -750 -218 514c-17,0 -26,0 -44,9 -17,0 -35,0 -44,0 -17,0 -26,0 -44,0 -9,0 -26,0 -44,-9l-218 -523 -17 758c-35,9 -61,9 -96,9 -35,0 -70,0 -96,-9l35 -1098z"/>
   <path class="fil1" d="M9226 3948c9,61 26,105 61,131 35,26 87,44 157,44 35,0 70,0 105,-9 35,-9 70,-17 105,-26 9,17 26,44 26,70 9,26 9,61 17,96 -78,26 -166,44 -270,44 -70,0 -139,-9 -192,-35 -52,-17 -96,-52 -131,-87 -35,-35 -61,-78 -78,-131 -17,-52 -26,-105 -26,-166 0,-61 9,-113 26,-166 17,-52 44,-96 70,-131 35,-35 70,-70 122,-87 52,-26 105,-35 166,-35 52,0 105,9 148,26 44,17 78,44 113,78 26,35 52,70 70,122 17,44 17,96 17,148 0,17 0,35 0,61 0,17 0,35 0,44l-506 0 0 9zm305 -148c0,-52 -17,-87 -44,-122 -26,-26 -61,-44 -105,-44 -52,0 -87,17 -113,44 -26,26 -44,70 -44,122l305 0z"/>
   <path class="fil1" d="M9932 3651l-105 0 -9 -26 296 -366 35 0 0 235 183 0c0,17 0,26 9,44 0,9 0,26 0,35 0,17 0,26 0,44 0,17 0,26 -9,44l-183 0 0 314c0,35 0,61 9,78 9,17 9,35 26,44 9,9 17,17 35,26 17,0 35,9 52,9 17,0 35,0 44,0 17,0 26,-9 44,-9 9,17 9,44 17,61 0,17 0,44 0,52 0,9 0,17 0,26 0,9 0,17 0,26 -44,9 -96,17 -148,17 -96,0 -166,-17 -209,-61 -52,-44 -70,-113 -70,-209l0 -384 -17 0z"/>
   <path class="fil1" d="M10499 3486c17,0 26,-9 44,-9 17,0 26,0 44,0 17,0 26,0 44,0 17,0 26,9 44,9 0,9 9,9 9,26 0,9 0,17 9,35 0,9 9,17 9,35 0,9 0,17 0,26 17,-35 52,-61 78,-87 35,-26 70,-35 122,-35 9,0 26,0 35,0 9,0 26,0 26,9 0,9 9,26 9,35 0,17 0,26 0,44 0,17 0,35 0,61 0,17 -9,44 -9,61 -9,0 -26,0 -35,0l-26 0c-17,0 -35,0 -61,9 -17,0 -44,9 -61,26 -17,17 -35,35 -44,70 -9,35 -17,70 -17,131l0 375c-17,0 -35,9 -52,9 -17,0 -35,0 -52,0 -17,0 -35,0 -52,0 -17,0 -35,0 -52,-9l0 -819 -9 0z"/>
   <g>
    <path class="fil1" d="M11423 4296c-61,0 -122,-9 -166,-35 -44,-17 -87,-52 -113,-87 -35,-35 -52,-78 -70,-131 -17,-52 -26,-105 -26,-166 0,-61 9,-113 26,-166 17,-52 44,-96 70,-131 35,-35 70,-70 113,-87 52,-17 105,-35 166,-35 61,0 122,9 166,35 44,17 87,52 122,87 35,35 52,78 70,131 17,52 26,105 26,166 0,61 -9,113 -26,166 -17,52 -44,96 -70,131 -35,35 -70,70 -122,87 -44,26 -105,35 -166,35l0 0zm0 -166c61,0 96,-17 122,-61 26,-44 35,-105 35,-183 0,-78 -17,-139 -35,-183 -26,-44 -61,-61 -122,-61 -52,0 -96,17 -122,61 -26,44 -35,105 -35,183 0,78 9,139 35,183 26,44 70,61 122,61z"/>
   </g>
   <path class="fil1" d="M8294 4593c17,0 35,-9 52,-9 17,0 35,0 52,0 17,0 35,0 52,0 17,0 35,0 52,9l0 1125c-44,17 -96,26 -148,35 -52,9 -113,9 -183,9 -52,0 -105,-9 -157,-26 -52,-17 -96,-44 -139,-70 -44,-35 -70,-78 -96,-131 -9,-44 -17,-105 -17,-183 0,-61 9,-113 26,-166 17,-52 44,-96 78,-139 35,-44 78,-70 131,-96 52,-26 113,-35 174,-35 17,0 35,0 61,0 17,0 35,9 61,9l0 -331zm0 506c-26,-9 -44,-9 -52,-9 -9,0 -26,0 -52,0 -35,0 -61,9 -87,17 -26,17 -44,35 -61,61 -17,26 -26,52 -35,87 -9,35 -9,61 -9,96 0,44 0,78 17,113 9,26 26,52 44,70 17,17 35,35 70,35 26,9 52,9 78,9 17,0 35,0 52,0 17,0 35,-9 52,-9l0 -471 -17 0z"/>
   <path class="fil1" d="M8904 5412c0,61 26,113 61,139 44,26 96,44 157,44 35,0 70,0 113,-9 35,-9 70,-17 105,-26 9,17 17,44 26,78 9,26 9,61 17,96 -78,35 -174,44 -279,44 -78,0 -139,-9 -192,-35 -52,-17 -96,-52 -131,-87 -35,-35 -61,-78 -78,-131 -17,-52 -26,-105 -26,-166 0,-61 9,-113 26,-166 17,-52 44,-96 78,-139 35,-35 78,-70 122,-96 44,-26 105,-35 166,-35 61,0 105,9 148,26 44,17 78,44 113,78 35,35 52,78 70,122 17,44 26,96 26,157 0,17 0,44 0,61 0,17 0,35 -9,44l-514 0zm323 -157c0,-52 -17,-87 -44,-122 -26,-35 -61,-44 -105,-44 -52,0 -96,17 -122,44 -26,26 -44,70 -52,122l323 0z"/>
   <path class="fil1" d="M9959 4619c35,-9 78,-9 113,-9 35,0 78,0 113,9l0 933 392 0c0,17 9,35 9,52 0,17 0,35 0,44 0,17 0,35 0,52 0,17 0,35 -9,52l-619 0 0 -1133z"/>
   <path class="fil1" d="M10769 5107l-105 0c0,-17 -9,-26 -9,-44 0,-17 0,-26 0,-44 0,-26 0,-52 9,-87l323 0 0 819c-35,9 -70,9 -113,9 -35,0 -70,0 -105,-9l0 -645zm-35 -314c-9,-35 -9,-70 -9,-105 0,-35 0,-70 9,-105 17,0 35,-9 61,-9 17,0 35,0 52,0 17,0 35,0 61,0 26,0 44,0 61,9 0,17 9,35 9,52 0,17 0,35 0,52 0,17 0,35 0,52 0,17 0,35 -9,52 -17,0 -35,9 -61,9 -17,0 -35,0 -61,0 -17,0 -35,0 -52,0 -26,0 -44,0 -61,-9z"/>
   <path class="fil1" d="M11205 4933c17,0 26,-9 44,-9 17,0 35,0 52,0 17,0 35,0 44,0 17,0 26,0 44,9 0,9 9,9 9,26 0,9 9,17 9,35 0,9 0,17 9,35 0,9 0,17 0,26 9,-17 17,-35 35,-44 17,-17 26,-26 52,-44 17,-9 44,-26 61,-35 26,-9 52,-9 78,-9 131,0 209,52 244,148 17,-35 52,-70 87,-105 35,-26 87,-44 148,-44 96,0 157,26 201,78 44,52 61,131 61,235l0 514c-35,9 -78,9 -113,9 -35,0 -78,0 -113,-9l0 -462c0,-52 -9,-105 -17,-131 -17,-35 -44,-44 -87,-44 -17,0 -35,0 -52,9 -17,9 -35,17 -44,26 -17,17 -26,35 -35,61 -9,26 -17,61 -17,96l0 436c-35,9 -78,9 -113,9 -35,0 -70,0 -113,-9l0 -462c0,-52 -9,-105 -17,-131 -17,-35 -44,-44 -87,-44 -17,0 -35,0 -52,9 -17,9 -35,17 -52,35 -17,17 -26,35 -35,61 -9,26 -9,61 -9,105l0 427c-35,9 -78,9 -113,9 -35,0 -70,0 -113,-9l0 -811 9 0z"/>
   <path class="fil1" d="M12992 5212c0,-26 0,-44 -9,-61 -9,-17 -17,-26 -35,-35 -17,-9 -35,-17 -52,-17 -17,0 -44,-9 -70,-9 -52,0 -113,9 -183,35 -17,-26 -26,-52 -35,-78 -9,-26 -9,-52 -9,-87 44,-17 96,-26 139,-35 44,-9 87,-9 131,-9 113,0 192,26 253,78 61,52 96,139 96,253l0 471c-35,9 -78,26 -131,35 -52,9 -113,17 -174,17 -52,0 -105,-9 -148,-17 -44,-9 -78,-26 -113,-44 -35,-26 -61,-52 -70,-87 -17,-35 -26,-78 -26,-131 0,-52 9,-96 35,-131 26,-35 52,-61 87,-78 35,-17 70,-35 113,-44 44,-9 87,-17 122,-17 26,0 61,0 105,9l0 -17 -26 0zm0 166c-9,0 -26,0 -44,-9 -17,0 -26,0 -35,0 -52,0 -96,9 -122,26 -26,17 -44,52 -44,87 0,26 9,52 17,61 9,17 26,26 44,35 17,9 35,9 52,9 17,0 35,0 44,0 17,0 35,0 44,0 17,0 26,-9 44,-9l0 -201z"/>
   <path id="path3911-9" class="fil2" d="M1377 2394l0 -1246 271 0 0 1182c0,59 13,106 59,140 49,20 105,17 178,17l0 216c-363,0 -508,-87 -508,-309z" inkscape:connector-curvature="0" sodipodi:nodetypes="sccscccs"/>
   <polygon id="path3913-8" class="fil2" points="2124,2684 2124,1785 1967,1785 1967,1627 2394,1627 2394,2684 " inkscape:connector-curvature="0" sodipodi:nodetypes="ccccccc"/>
   <path id="path3915-0" class="fil2" d="M3357 2699l0 -679c0,-77 -62,-156 -196,-157 -109,0 -210,89 -210,176l0 660 -276 0 0 -1066 277 0 -1 137c70,-105 129,-157 286,-157 261,0 391,142 391,426l0 660 -271 0z" inkscape:connector-curvature="0" sodipodi:nodetypes="ccccccccccscc"/>
   <path id="path3917-0" class="fil2" d="M4785 2235l-708 0c0,130 34,155 78,206 41,44 130,72 226,72 89,0 166,-14 258,-60l96 210c-139,43 -287,67 -421,67 -135,0 -249,-47 -343,-142 -105,-104 -157,-244 -157,-420 0,-183 54,-329 161,-439 96,-99 209,-148 341,-148 152,0 272,44 359,133 84,85 126,199 126,340 0,43 -5,143 -15,180l0 0zm-460 -436c-161,0 -240,129 -240,242l469 0c0,-120 -102,-238 -229,-242z" inkscape:connector-curvature="0" sodipodi:nodetypes="cccsccccsccccccccc"/>
   <path id="path3919-1" class="fil2" d="M5269 2722c-90,0 -168,-31 -233,-93 -66,-62 -99,-140 -99,-232 0,-111 51,-205 152,-281 167,-98 313,-145 465,-95 0,-110 -61,-218 -180,-218 -127,0 -204,23 -293,57l-85 -162c38,-30 92,-56 160,-77 68,-21 133,-32 195,-32 166,0 286,36 362,108 75,72 110,185 110,343 0,0 0,486 0,632 0,0 -139,52 -329,52l-225 -1 0 0zm304 -536c0,0 -64,-4 -158,-4 -143,0 -189,98 -189,166 0,140 99,160 183,160 90,0 139,-14 163,-33l0 -289z" inkscape:connector-curvature="0" sodipodi:nodetypes="csscccccccccccccccsccc"/>
   <path id="path3944-5" class="fil2" d="M5823 3364l-2 2168c0,117 -117,229 -252,230l-521 4 -2 -1770 -488 0 0 -349c361,-68 456,-256 595,-486l476 1c93,0 194,106 194,202l0 0z" sodipodi:nodetypes="cccccccccc" inkscape:connector-curvature="0"/>
  </g>
 </g>
</svg>
